<svg width="16" height="20" viewBox="0 0 16 20" fill="none" xmlns="http://www.w3.org/2000/svg">
<path d="M13.3746 10.9949C12.8351 8.27946 15.4125 6.6869 15.4125 6.6869C15.4125 6.6869 14.4083 5.23408 12.7206 4.86033C11.0338 4.48576 10.1896 4.95375 9.34697 5.30475C8.50355 5.65661 8.0827 5.65661 8.0827 5.65661C6.86557 5.65661 5.97583 4.36791 3.65688 4.95461C2.05929 5.35778 0.377487 7.20203 0.0736237 9.40317C-0.230239 11.6051 0.425484 14.4148 1.68975 16.5924C2.95402 18.7717 4.2419 19.5906 5.15599 19.6142C6.07011 19.6369 6.98256 18.9594 8.0827 18.7944C9.1837 18.6311 9.86128 19.1934 10.9412 19.4972C12.0169 19.8003 12.394 19.5191 13.6331 18.4653C14.8754 17.4114 16 14.3888 16 14.3888C16 14.3888 13.9142 13.712 13.3746 10.9949Z" fill="#75818D"/>
<path d="M10.986 3.10345C12.1812 1.8855 11.7763 0 11.7763 0C11.7763 0 10.0979 0.294615 8.97337 1.46461C7.84966 2.63546 8.03568 4.48474 8.03568 4.48474C8.03568 4.48474 9.79068 4.32062 10.986 3.10345Z" fill="#75818D"/>
</svg>
