<svg width="15" height="15" viewBox="0 0 15 15" fill="none" xmlns="http://www.w3.org/2000/svg">
<path d="M10.5331 2.45061V1.5286C10.5331 1.28628 10.3322 1.08533 10.0899 1.08533C9.84755 1.08533 9.6466 1.28628 9.6466 1.5286V2.41514H5.80491V1.5286C5.80491 1.28628 5.60396 1.08533 5.36164 1.08533C5.11932 1.08533 4.91837 1.28628 4.91837 1.5286V2.45061C3.32259 2.59836 2.54834 3.54992 2.43013 4.96248C2.41831 5.13388 2.56016 5.27573 2.72565 5.27573H12.7259C12.8973 5.27573 13.0391 5.12797 13.0214 4.96248C12.9032 3.54992 12.1289 2.59836 10.5331 2.45061Z" fill="#CBD0DC"/>
<path d="M12.4542 6.16248H2.99777C2.6727 6.16248 2.40674 6.42844 2.40674 6.75351V10.3942C2.40674 12.1673 3.29328 13.3494 5.36189 13.3494H10.0901C12.1587 13.3494 13.0453 12.1673 13.0453 10.3942V6.75351C13.0453 6.42844 12.7793 6.16248 12.4542 6.16248ZM6.07703 11.1094C6.04748 11.133 6.01793 11.1626 5.98838 11.1803C5.95292 11.204 5.91746 11.2217 5.88199 11.2335C5.84653 11.2512 5.81107 11.2631 5.77561 11.269C5.73424 11.2749 5.69877 11.2808 5.6574 11.2808C5.58057 11.2808 5.50373 11.2631 5.43281 11.2335C5.35598 11.204 5.29687 11.1626 5.23777 11.1094C5.13139 10.9971 5.06637 10.8434 5.06637 10.6898C5.06637 10.5361 5.13139 10.3824 5.23777 10.2701C5.29687 10.2169 5.35598 10.1756 5.43281 10.146C5.5392 10.0987 5.6574 10.0869 5.77561 10.1106C5.81107 10.1165 5.84653 10.1283 5.88199 10.146C5.91746 10.1578 5.95292 10.1756 5.98838 10.1992C6.01793 10.2228 6.04748 10.2465 6.07703 10.2701C6.18342 10.3824 6.24843 10.5361 6.24843 10.6898C6.24843 10.8434 6.18342 10.9971 6.07703 11.1094ZM6.07703 9.04079C5.96474 9.14718 5.81107 9.21219 5.6574 9.21219C5.50373 9.21219 5.35007 9.14718 5.23777 9.04079C5.13139 8.92849 5.06637 8.77483 5.06637 8.62116C5.06637 8.46749 5.13139 8.31382 5.23777 8.20153C5.40326 8.03604 5.66331 7.98285 5.88199 8.07741C5.95883 8.10696 6.02384 8.14834 6.07703 8.20153C6.18342 8.31382 6.24843 8.46749 6.24843 8.62116C6.24843 8.77483 6.18342 8.92849 6.07703 9.04079ZM8.14564 11.1094C8.03334 11.2158 7.87967 11.2808 7.72601 11.2808C7.57234 11.2808 7.41867 11.2158 7.30638 11.1094C7.19999 10.9971 7.13498 10.8434 7.13498 10.6898C7.13498 10.5361 7.19999 10.3824 7.30638 10.2701C7.52506 10.0515 7.92696 10.0515 8.14564 10.2701C8.25202 10.3824 8.31704 10.5361 8.31704 10.6898C8.31704 10.8434 8.25202 10.9971 8.14564 11.1094ZM8.14564 9.04079C8.11609 9.06443 8.08653 9.08807 8.05698 9.11171C8.02152 9.13535 7.98606 9.15309 7.9506 9.16491C7.91514 9.18264 7.87967 9.19446 7.84421 9.20037C7.80284 9.20628 7.76738 9.21219 7.72601 9.21219C7.57234 9.21219 7.41867 9.14718 7.30638 9.04079C7.19999 8.92849 7.13498 8.77483 7.13498 8.62116C7.13498 8.46749 7.19999 8.31382 7.30638 8.20153C7.35957 8.14834 7.42458 8.10696 7.50141 8.07741C7.7201 7.98285 7.98015 8.03604 8.14564 8.20153C8.25202 8.31382 8.31704 8.46749 8.31704 8.62116C8.31704 8.77483 8.25202 8.92849 8.14564 9.04079ZM10.2142 11.1094C10.1019 11.2158 9.94828 11.2808 9.79461 11.2808C9.64094 11.2808 9.48727 11.2158 9.37498 11.1094C9.26859 10.9971 9.20358 10.8434 9.20358 10.6898C9.20358 10.5361 9.26859 10.3824 9.37498 10.2701C9.59366 10.0515 9.99556 10.0515 10.2142 10.2701C10.3206 10.3824 10.3856 10.5361 10.3856 10.6898C10.3856 10.8434 10.3206 10.9971 10.2142 11.1094ZM10.2142 9.04079C10.1847 9.06443 10.1551 9.08807 10.1256 9.11171C10.0901 9.13535 10.0547 9.15309 10.0192 9.16491C9.98374 9.18264 9.94828 9.19446 9.91282 9.20037C9.87144 9.20628 9.83007 9.21219 9.79461 9.21219C9.64094 9.21219 9.48727 9.14718 9.37498 9.04079C9.26859 8.92849 9.20358 8.77483 9.20358 8.62116C9.20358 8.46749 9.26859 8.31382 9.37498 8.20153C9.43408 8.14834 9.49319 8.10696 9.57002 8.07741C9.6764 8.03013 9.79461 8.01831 9.91282 8.04195C9.94828 8.04786 9.98374 8.05968 10.0192 8.07741C10.0547 8.08923 10.0901 8.10696 10.1256 8.1306C10.1551 8.15425 10.1847 8.17789 10.2142 8.20153C10.3206 8.31382 10.3856 8.46749 10.3856 8.62116C10.3856 8.77483 10.3206 8.92849 10.2142 9.04079Z" fill="#CBD0DC"/>
</svg>
