<svg width="20" height="20" viewBox="0 0 20 20" fill="none" xmlns="http://www.w3.org/2000/svg">
<rect width="20" height="20" rx="10" fill="#6357FF"/>
<path d="M5.67306 14.7887H14.3261C15.3708 14.7887 15.9033 14.2662 15.9033 13.2317V7.97329C15.9033 6.93872 15.3708 6.42144 14.3261 6.42144H13.151C12.7593 6.42144 12.6388 6.34108 12.4128 6.08994L12.0058 5.63779C11.7598 5.36179 11.5038 5.21094 10.9813 5.21094H8.98249C8.4652 5.21094 8.20892 5.36179 7.95799 5.63779L7.55106 6.08994C7.33013 6.33594 7.20456 6.42144 6.81285 6.42144H5.67285C4.6282 6.42144 4.0957 6.93872 4.0957 7.97329V13.2317C4.0957 14.2662 4.62842 14.7887 5.67306 14.7887ZM9.99713 13.1815C8.4802 13.1815 7.25985 11.9609 7.25985 10.4344C7.25985 8.90737 8.4802 7.68722 9.99692 7.68722C11.5237 7.68722 12.7391 8.90737 12.7391 10.4344C12.7391 11.9609 11.5188 13.1815 9.99692 13.1815M13.6078 9.20865C13.2663 9.20865 12.9851 8.93265 12.9851 8.59108C12.9851 8.42593 13.0507 8.26754 13.1675 8.15075C13.2843 8.03397 13.4427 7.96837 13.6078 7.96837C13.773 7.96837 13.9314 8.03397 14.0482 8.15075C14.165 8.26754 14.2306 8.42593 14.2306 8.59108C14.2306 8.93265 13.9494 9.20865 13.6078 9.20865ZM9.99713 12.4182C10.2577 12.4185 10.5159 12.3674 10.7567 12.2678C10.9975 12.1683 11.2163 12.0221 11.4006 11.8379C11.5849 11.6536 11.731 11.4348 11.8306 11.1939C11.9302 10.9531 11.9813 10.695 11.981 10.4344C11.9813 10.1738 11.9301 9.91568 11.8305 9.67488C11.7309 9.43407 11.5848 9.21527 11.4005 9.03101C11.2163 8.84676 10.9975 8.70066 10.7566 8.60108C10.5158 8.50151 10.2577 8.45041 9.99713 8.45072C8.90213 8.45072 8.01842 9.33465 8.01842 10.4344C8.01842 11.5343 8.90727 12.4182 9.99713 12.4182Z" fill="white"/>
</svg>
