<svg width="48" height="48" viewBox="0 0 48 48" fill="none" xmlns="http://www.w3.org/2000/svg">
<path d="M6.69346 43.1554H41.3057C45.4843 43.1554 47.6143 41.0657 47.6143 36.9274V15.894C47.6143 11.7557 45.4843 9.68657 41.3057 9.68657H36.6052C35.0383 9.68657 34.5566 9.36515 33.6523 8.36057L32.0246 6.552C31.0406 5.448 30.0163 4.84457 27.9266 4.84457H19.9312C17.862 4.84457 16.8369 5.448 15.8332 6.552L14.2055 8.36057C13.3217 9.34457 12.8195 9.68657 11.2526 9.68657H6.6926C2.51403 9.68657 0.384033 11.7557 0.384033 15.894V36.9274C0.384033 41.0657 2.51489 43.1554 6.69346 43.1554ZM23.9897 36.7269C17.922 36.7269 13.0406 31.8446 13.0406 25.7383C13.0406 19.6303 17.922 14.7497 23.9889 14.7497C30.096 14.7497 34.9577 19.6303 34.9577 25.7383C34.9577 31.8446 30.0763 36.7269 23.9889 36.7269M38.4326 20.8354C37.0663 20.8354 35.9417 19.7314 35.9417 18.3651C35.9417 17.7045 36.2042 17.071 36.6713 16.6038C37.1384 16.1367 37.772 15.8743 38.4326 15.8743C39.0932 15.8743 39.7268 16.1367 40.1939 16.6038C40.661 17.071 40.9235 17.7045 40.9235 18.3651C40.9235 19.7314 39.7989 20.8354 38.4326 20.8354ZM23.9897 33.6737C25.0322 33.675 26.0646 33.4705 27.028 33.0722C27.9913 32.6738 28.8666 32.0894 29.6037 31.3522C30.3408 30.6151 30.9253 29.7398 31.3237 28.7765C31.722 27.8132 31.9264 26.7807 31.9252 25.7383C31.9263 24.6959 31.7218 23.6636 31.3234 22.7003C30.925 21.7371 30.3405 20.8619 29.6034 20.1249C28.8663 19.3878 27.991 18.8035 27.0278 18.4052C26.0645 18.0069 25.0321 17.8025 23.9897 17.8037C19.6097 17.8037 16.0749 21.3394 16.0749 25.7383C16.0749 30.138 19.6303 33.6737 23.9897 33.6737Z" fill="white"/>
</svg>
