<svg width="15" height="15" viewBox="0 0 15 15" fill="none" xmlns="http://www.w3.org/2000/svg">
<path d="M13.1167 4.58656C13.1167 4.97664 12.7976 5.2958 12.4075 5.2958H2.00538C1.6153 5.2958 1.29614 4.97664 1.29614 4.58656V4.58065C1.29614 3.22719 2.38955 2.13379 3.74301 2.13379H10.664C12.0174 2.13379 13.1167 3.2331 13.1167 4.58656Z" fill="#FF6D8B"/>
<path d="M1.29614 6.89185V9.85291C1.29614 11.2064 2.38955 12.2998 3.74301 12.2998H10.664C12.0174 12.2998 13.1167 11.2005 13.1167 9.847V6.89185C13.1167 6.50177 12.7976 6.18262 12.4075 6.18262H2.00538C1.6153 6.18262 1.29614 6.50177 1.29614 6.89185ZM4.84232 10.3198H3.66026C3.41794 10.3198 3.21699 10.1189 3.21699 9.87655C3.21699 9.63423 3.41794 9.43328 3.66026 9.43328H4.84232C5.08464 9.43328 5.28559 9.63423 5.28559 9.87655C5.28559 10.1189 5.08464 10.3198 4.84232 10.3198ZM8.68401 10.3198H6.3199C6.07757 10.3198 5.87662 10.1189 5.87662 9.87655C5.87662 9.63423 6.07757 9.43328 6.3199 9.43328H8.68401C8.92634 9.43328 9.12729 9.63423 9.12729 9.87655C9.12729 10.1189 8.92634 10.3198 8.68401 10.3198Z" fill="#FF6D8B"/>
</svg>
