<svg width="24" height="25" viewBox="0 0 24 25" fill="none" xmlns="http://www.w3.org/2000/svg">
<g clip-path="url(#clip0_193_25040)">
<path d="M12.0004 24.0999C18.4069 24.0999 23.6004 18.9064 23.6004 12.4999C23.6004 6.0934 18.4069 0.899902 12.0004 0.899902C5.59389 0.899902 0.400391 6.0934 0.400391 12.4999C0.400391 18.9064 5.59389 24.0999 12.0004 24.0999Z" fill="#F0C419"/>
<path d="M12.0008 21.6998C17.0818 21.6998 21.2008 17.5808 21.2008 12.4998C21.2008 7.41879 17.0818 3.2998 12.0008 3.2998C6.91976 3.2998 2.80078 7.41879 2.80078 12.4998C2.80078 17.5808 6.91976 21.6998 12.0008 21.6998Z" fill="#F3D55B"/>
<path d="M12.2987 7.91469L13.3891 10.2347C13.4128 10.2857 13.4486 10.3302 13.4935 10.3642C13.5383 10.3981 13.5908 10.4206 13.6463 10.4295L16.0919 10.8023C16.1556 10.8139 16.2148 10.8427 16.2634 10.8855C16.3119 10.9282 16.3479 10.9834 16.3675 11.0451C16.387 11.1067 16.3895 11.1726 16.3745 11.2355C16.3595 11.2984 16.3276 11.3561 16.2823 11.4023L14.5063 13.2187C14.4671 13.2592 14.438 13.3084 14.4212 13.3622C14.4045 13.4161 14.4006 13.4731 14.4099 13.5287L14.8283 16.0887C14.8408 16.1523 14.8351 16.2181 14.8117 16.2785C14.7884 16.3389 14.7485 16.3916 14.6965 16.4303C14.6446 16.469 14.5828 16.4923 14.5182 16.4974C14.4536 16.5024 14.3889 16.4892 14.3315 16.4591L12.1527 15.2591C12.1037 15.2322 12.0487 15.218 11.9927 15.218C11.9368 15.218 11.8818 15.2322 11.8327 15.2591L9.65394 16.4591C9.59658 16.4892 9.53187 16.5024 9.46729 16.4974C9.4027 16.4923 9.34088 16.469 9.28894 16.4303C9.23701 16.3916 9.19707 16.3389 9.17375 16.2785C9.15043 16.2181 9.14468 16.1523 9.15714 16.0887L9.57554 13.5287C9.58488 13.4731 9.58102 13.4161 9.56427 13.3622C9.54753 13.3084 9.51837 13.2592 9.47914 13.2187L7.70314 11.4023C7.65787 11.3561 7.62602 11.2984 7.61103 11.2355C7.59603 11.1726 7.59844 11.1067 7.61801 11.0451C7.63758 10.9834 7.67356 10.9282 7.7221 10.8855C7.77064 10.8427 7.82991 10.8139 7.89354 10.8023L10.3391 10.4295C10.3947 10.4206 10.4472 10.3981 10.492 10.3642C10.5369 10.3302 10.5727 10.2857 10.5963 10.2347L11.6867 7.91469C11.7134 7.85589 11.7565 7.80602 11.8107 7.77104C11.865 7.73607 11.9282 7.71747 11.9927 7.71747C12.0573 7.71747 12.1205 7.73607 12.1748 7.77104C12.229 7.80602 12.2721 7.85589 12.2987 7.91469Z" fill="#F29C1F"/>
</g>
<defs>
<clipPath id="clip0_193_25040">
<rect width="24" height="24" fill="white" transform="translate(0 0.5)"/>
</clipPath>
</defs>
</svg>
