<svg width="16" height="16" viewBox="0 0 16 16" fill="none" xmlns="http://www.w3.org/2000/svg">
<path d="M14.4623 2.77145C14.4623 2.77145 14.4623 2.7777 14.4623 2.78083L10.8248 14.7771C10.7697 14.9719 10.6564 15.1453 10.5 15.2739C10.3436 15.4024 10.1516 15.4801 9.94975 15.4965C9.921 15.499 9.89225 15.5002 9.8635 15.5002C9.67438 15.5008 9.48903 15.4473 9.32933 15.3459C9.16964 15.2446 9.04227 15.0997 8.96225 14.9283L6.73038 10.2165C6.70834 10.1698 6.70126 10.1176 6.7101 10.0668C6.71894 10.016 6.74327 9.96914 6.77975 9.9327L10.3585 6.35333C10.4483 6.2588 10.4976 6.13292 10.496 6.00254C10.4943 5.87216 10.4418 5.74759 10.3496 5.65539C10.2574 5.56319 10.1328 5.51065 10.0024 5.50898C9.87203 5.50731 9.74616 5.55664 9.65163 5.64645L6.06725 9.2252C6.03082 9.26169 5.984 9.28602 5.9332 9.29486C5.88241 9.3037 5.83012 9.29661 5.7835 9.27458L1.096 7.05395C0.911905 6.96961 0.756976 6.83253 0.650834 6.66008C0.544693 6.48763 0.492113 6.28756 0.499752 6.0852C0.509932 5.87723 0.585226 5.67771 0.71499 5.51486C0.844754 5.35201 1.02242 5.23407 1.22288 5.1777L13.2191 1.5402H13.2285C13.3993 1.49222 13.5798 1.49053 13.7515 1.53533C13.9231 1.58012 14.0798 1.66978 14.2054 1.79511C14.3309 1.92043 14.4209 2.07691 14.4661 2.24848C14.5112 2.42006 14.5099 2.60055 14.4623 2.77145Z" fill="#6357FF"/>
</svg>
