<svg width="21" height="20" viewBox="0 0 21 20" fill="none" xmlns="http://www.w3.org/2000/svg">
<path d="M17.125 3.75H14V3.125C14 2.62772 13.8025 2.15081 13.4508 1.79917C13.0992 1.44754 12.6223 1.25 12.125 1.25H8.375C7.87772 1.25 7.40081 1.44754 7.04917 1.79917C6.69754 2.15081 6.5 2.62772 6.5 3.125V3.75H3.375C3.20924 3.75 3.05027 3.81585 2.93306 3.93306C2.81585 4.05027 2.75 4.20924 2.75 4.375C2.75 4.54076 2.81585 4.69973 2.93306 4.81694C3.05027 4.93415 3.20924 5 3.375 5H4V16.25C4 16.5815 4.1317 16.8995 4.36612 17.1339C4.60054 17.3683 4.91848 17.5 5.25 17.5H15.25C15.5815 17.5 15.8995 17.3683 16.1339 17.1339C16.3683 16.8995 16.5 16.5815 16.5 16.25V5H17.125C17.2908 5 17.4497 4.93415 17.5669 4.81694C17.6842 4.69973 17.75 4.54076 17.75 4.375C17.75 4.20924 17.6842 4.05027 17.5669 3.93306C17.4497 3.81585 17.2908 3.75 17.125 3.75ZM9 13.125C9 13.2908 8.93415 13.4497 8.81694 13.5669C8.69973 13.6842 8.54076 13.75 8.375 13.75C8.20924 13.75 8.05027 13.6842 7.93306 13.5669C7.81585 13.4497 7.75 13.2908 7.75 13.125V8.125C7.75 7.95924 7.81585 7.80027 7.93306 7.68306C8.05027 7.56585 8.20924 7.5 8.375 7.5C8.54076 7.5 8.69973 7.56585 8.81694 7.68306C8.93415 7.80027 9 7.95924 9 8.125V13.125ZM12.75 13.125C12.75 13.2908 12.6842 13.4497 12.5669 13.5669C12.4497 13.6842 12.2908 13.75 12.125 13.75C11.9592 13.75 11.8003 13.6842 11.6831 13.5669C11.5658 13.4497 11.5 13.2908 11.5 13.125V8.125C11.5 7.95924 11.5658 7.80027 11.6831 7.68306C11.8003 7.56585 11.9592 7.5 12.125 7.5C12.2908 7.5 12.4497 7.56585 12.5669 7.68306C12.6842 7.80027 12.75 7.95924 12.75 8.125V13.125ZM12.75 3.75H7.75V3.125C7.75 2.95924 7.81585 2.80027 7.93306 2.68306C8.05027 2.56585 8.20924 2.5 8.375 2.5H12.125C12.2908 2.5 12.4497 2.56585 12.5669 2.68306C12.6842 2.80027 12.75 2.95924 12.75 3.125V3.75Z" fill="#6357FF"/>
</svg>
