<svg width="20" height="20" viewBox="0 0 20 20" fill="none" xmlns="http://www.w3.org/2000/svg">
<path d="M16.667 3.3335H3.33366C2.41699 3.3335 1.67533 4.0835 1.67533 5.00016L1.66699 15.0002C1.66699 15.9168 2.41699 16.6668 3.33366 16.6668H16.667C17.5837 16.6668 18.3337 15.9168 18.3337 15.0002V5.00016C18.3337 4.0835 17.5837 3.3335 16.667 3.3335ZM16.3337 6.87516L10.442 10.5585C10.1753 10.7252 9.82533 10.7252 9.55866 10.5585L3.66699 6.87516C3.58343 6.82826 3.51026 6.76488 3.4519 6.68887C3.39354 6.61287 3.35121 6.52581 3.32747 6.43297C3.30373 6.34013 3.29908 6.24344 3.31379 6.14875C3.3285 6.05406 3.36227 5.96334 3.41306 5.88208C3.46385 5.80082 3.5306 5.73071 3.60926 5.67599C3.68793 5.62127 3.77688 5.58309 3.87074 5.56374C3.96459 5.5444 4.06139 5.5443 4.15529 5.56345C4.24918 5.5826 4.33821 5.62061 4.41699 5.67516L10.0003 9.16683L15.5837 5.67516C15.6624 5.62061 15.7515 5.5826 15.8454 5.56345C15.9393 5.5443 16.0361 5.5444 16.1299 5.56374C16.2238 5.58309 16.3127 5.62127 16.3914 5.67599C16.4701 5.73071 16.5368 5.80082 16.5876 5.88208C16.6384 5.96334 16.6722 6.05406 16.6869 6.14875C16.7016 6.24344 16.6969 6.34013 16.6732 6.43297C16.6494 6.52581 16.6071 6.61287 16.5488 6.68887C16.4904 6.76488 16.4172 6.82826 16.3337 6.87516Z" fill="#9E9FA1"/>
</svg>
