<svg width="24" height="24" viewBox="0 0 24 24" fill="none" xmlns="http://www.w3.org/2000/svg">
<path d="M8.4 5.9999L8.40042 5.9999C9.01113 5.99948 9.61271 6.14483 10.1542 6.42335C10.6956 6.70186 11.1607 7.10518 11.5105 7.5987C11.6229 7.75731 11.8052 7.85162 11.9996 7.85175C12.194 7.85187 12.3765 7.75779 12.4891 7.59932C13.1764 6.63214 14.3129 5.9999 15.6 5.9999C17.704 5.9999 19.4 7.68795 19.4 9.75812C19.4 11.7046 18.2289 13.6399 16.6257 15.2435C15.1044 16.7653 13.2879 17.893 12 18.3647C10.7121 17.893 8.89565 16.7653 7.37433 15.2435C5.77114 13.6399 4.6 11.7046 4.6 9.75812C4.6 7.68795 6.29596 5.9999 8.4 5.9999Z" stroke="#5B5C61" stroke-width="1.2" stroke-linecap="round" stroke-linejoin="round"/>
</svg>
