<svg width="24" height="24" viewBox="0 0 24 24" fill="none" xmlns="http://www.w3.org/2000/svg">
<path d="M11.9999 5.64716L10.7607 6.11775L9.8823 5.64716C8.71274 5.64716 7.76465 4.69907 7.76465 3.52951C7.76465 2.35996 8.71274 1.41187 9.8823 1.41187C11.0518 1.41187 11.9999 2.35996 11.9999 3.52951L12.4705 4.50212L11.9999 5.64716Z" fill="#FFDC75"/>
<path d="M14.8235 5.64706H12V2.82353C12 1.26414 13.2641 0 14.8235 0C16.3829 0 17.6471 1.26414 17.6471 2.82353C17.6471 4.38292 16.3829 5.64706 14.8235 5.64706Z" fill="#FFA951"/>
<path d="M9.17682 11.2941L5.05917 10.8235L1.41211 11.2941V24H12.0003L12.4709 21.7882L12.0003 18.4953L9.17682 11.2941Z" fill="#E50058"/>
<path d="M18.4706 10.8235L14.8235 11.2941L12 18.4953V24H22.5882C22.5882 23.2941 22.5882 12 22.5882 11.2941L18.4706 10.8235Z" fill="#B40042"/>
<path d="M9.17647 5.64697C8.6672 5.64697 0.509271 5.64697 0 5.64697V11.294H9.17647L9.64706 8.58815L9.17647 5.64697Z" fill="#FF415B"/>
<path d="M24.0005 11.294C24.0005 10.6108 24.0005 6.33469 24.0005 5.64697C23.4912 5.64697 15.3333 5.64697 14.824 5.64697L13.8828 8.4705L14.824 11.294H24.0005Z" fill="#E50058"/>
<path d="M9.17676 5.64697V20.3777C9.94401 19.8662 11.5517 18.7944 12.0003 18.4953L12.4709 12.094L12.0003 5.64697C11.2118 5.64697 10.1134 5.64697 9.17676 5.64697Z" fill="#FFA951"/>
<path d="M14.8235 20.3777C14.8235 19.5602 14.8235 6.46438 14.8235 5.64697C13.8317 5.64697 12.9879 5.64697 12 5.64697V18.4953C12.7673 19.0068 14.3749 20.0786 14.8235 20.3777Z" fill="#FF8C59"/>
</svg>
