<svg width="16" height="16" viewBox="0 0 16 16" fill="none" xmlns="http://www.w3.org/2000/svg">
<path d="M15.5118 6.37142C15.5814 6.37142 15.6377 6.42777 15.6377 6.49728V7.81874C15.6377 8.31333 15.5918 8.79694 15.5037 9.26606C14.8221 12.91 11.6118 15.6638 7.76384 15.6373C3.44616 15.6075 -0.0092957 12.1189 0.000263928 7.80112C0.00976247 3.49113 3.50675 0 7.81897 0C9.93165 0 11.8485 0.838132 13.2559 2.19957C13.3067 2.24871 13.308 2.32971 13.258 2.37968L11.3885 4.24918C11.3404 4.29731 11.2626 4.29856 11.2133 4.25162C10.33 3.41083 9.13487 2.89464 7.81897 2.89464C5.10162 2.89464 2.91345 5.06728 2.895 7.78456C2.87646 10.5197 5.08819 12.7428 7.81897 12.7428C10.0346 12.7428 11.9086 11.2791 12.5266 9.26606H7.94483C7.87532 9.26606 7.81897 9.20971 7.81897 9.1402V6.49725C7.81897 6.42774 7.87532 6.37139 7.94483 6.37139L15.5118 6.37142Z" fill="#2196F3"/>
<path d="M15.5113 6.37158H14.5674C14.6369 6.37158 14.6932 6.42793 14.6932 6.49745V7.8189C14.6932 8.3135 14.6473 8.7971 14.5592 9.26623C13.9089 12.7426 10.9572 15.4087 7.34595 15.6235C7.48412 15.6317 7.62321 15.6365 7.76327 15.6374C11.6113 15.664 14.8215 12.9101 15.5031 9.26623C15.5912 8.7971 15.6371 8.3135 15.6371 7.8189V6.49741C15.6371 6.42793 15.5808 6.37158 15.5113 6.37158Z" fill="#1E88E5"/>
<path d="M3.3465 5.75661L0.971924 4.04088C2.3041 1.6314 4.87121 0 7.81906 0C9.93174 0 11.8486 0.838132 13.256 2.19957C13.3068 2.24871 13.3081 2.32971 13.2581 2.37968L11.3886 4.24918C11.3405 4.29722 11.2628 4.29872 11.2136 4.25187C10.3303 3.41092 9.13508 2.89467 7.81906 2.89467C5.83591 2.89467 4.12648 4.067 3.3465 5.75661Z" fill="#F44336"/>
<path d="M2.66016 5.26117L3.34567 5.75647C4.0576 4.21428 5.54402 3.10359 7.30598 2.92141C7.31924 2.91997 7.33197 2.91823 7.34547 2.91695C7.19041 2.90223 7.03327 2.89453 6.87433 2.89453C5.08284 2.89453 3.52153 3.83898 2.66016 5.26117Z" fill="#E53935"/>
<path d="M12.3119 2.19957C12.3628 2.24871 12.3641 2.32971 12.3141 2.37971L10.7967 3.89712C10.942 4.00768 11.0812 4.12594 11.2133 4.25165C11.2626 4.2986 11.3403 4.29734 11.3885 4.24921L13.258 2.37971C13.308 2.32971 13.3066 2.24874 13.2558 2.19957C11.8485 0.838132 9.93163 0 7.81895 0C7.66041 0 7.50312 0.00528376 7.34692 0.014599C9.27229 0.129284 11.0102 0.940264 12.3119 2.19957Z" fill="#E53935"/>
<path d="M13.5535 13.1323C12.1257 14.6731 10.0843 15.6375 7.81796 15.6375C4.75686 15.6375 2.10668 13.8783 0.823242 11.3156L3.24751 9.6543C3.97499 11.4644 5.74734 12.7428 7.81796 12.7428C9.1174 12.7428 10.2992 12.2394 11.1789 11.4169L13.5535 13.1323Z" fill="#4CAF50"/>
<path d="M3.24831 9.6543L2.53345 10.1442C3.36373 11.6909 4.99647 12.7428 6.87483 12.7428C7.03368 12.7428 7.1907 12.735 7.3457 12.7203C5.48114 12.5425 3.91969 11.3249 3.24831 9.6543Z" fill="#43A047"/>
<path d="M7.81843 15.6372C10.0848 15.6372 12.1261 14.6729 13.554 13.1321L12.9724 12.7119C11.6317 14.3804 9.6205 15.4873 7.34766 15.623C7.50342 15.6323 7.66034 15.6372 7.81843 15.6372Z" fill="#43A047"/>
<path d="M2.89467 7.81887C2.89467 8.46764 3.0202 9.08719 3.24832 9.65447L0.824022 11.3157C0.296715 10.2636 0 9.07586 0 7.81887C0 6.44864 0.352393 5.16081 0.9716 4.04102L3.34618 5.75674C3.05639 6.3838 2.89467 7.08263 2.89467 7.81887Z" fill="#FFC107"/>
<path d="M2.53388 10.1446L3.24874 9.65476C3.02062 9.08747 2.8951 8.46793 2.8951 7.81915C2.8951 7.08291 3.05681 6.38408 3.3466 5.75702L2.66108 5.26172C2.21593 5.99671 1.95758 6.85919 1.95129 7.78501C1.94549 8.63878 2.15705 9.44268 2.53388 10.1446Z" fill="#FFB300"/>
</svg>
