<svg width="25" height="24" viewBox="0 0 25 24" fill="none" xmlns="http://www.w3.org/2000/svg">
<path d="M21.5 10.8327V19.4999C21.5 19.8977 21.342 20.2792 21.0607 20.5605C20.7794 20.8418 20.3978 20.9999 20 20.9999H16.25C15.8522 20.9999 15.4706 20.8418 15.1893 20.5605C14.908 20.2792 14.75 19.8977 14.75 19.4999V15.7499C14.75 15.551 14.671 15.3602 14.5303 15.2195C14.3897 15.0789 14.1989 14.9999 14 14.9999H11C10.8011 14.9999 10.6103 15.0789 10.4697 15.2195C10.329 15.3602 10.25 15.551 10.25 15.7499V19.4999C10.25 19.8977 10.092 20.2792 9.81066 20.5605C9.52936 20.8418 9.14782 20.9999 8.75 20.9999H5C4.60218 20.9999 4.22064 20.8418 3.93934 20.5605C3.65804 20.2792 3.5 19.8977 3.5 19.4999V10.8327C3.49997 10.6251 3.54303 10.4197 3.62646 10.2296C3.70989 10.0395 3.83187 9.86883 3.98469 9.72831L11.4847 2.65206L11.495 2.64175C11.7711 2.39062 12.131 2.25146 12.5042 2.25146C12.8775 2.25146 13.2373 2.39062 13.5134 2.64175C13.5166 2.64541 13.5201 2.64886 13.5238 2.65206L21.0238 9.72831C21.175 9.86957 21.2954 10.0406 21.3774 10.2307C21.4594 10.4207 21.5011 10.6257 21.5 10.8327Z" fill="#6357FF"/>
</svg>
