<svg width="24" height="24" viewBox="0 0 24 24" fill="none" xmlns="http://www.w3.org/2000/svg">
<path d="M23.2936 12.0906H17.8654C17.8654 12.0906 14.7752 12.0611 13.5046 10.8957C13.2119 10.6281 12.8056 10.5132 12.426 10.6323C12.4246 10.6323 12.4232 10.6337 12.4204 10.6337C12.1458 10.7234 11.8531 10.7234 11.5785 10.6337C11.5757 10.6337 11.5743 10.6323 11.5729 10.6323C11.1933 10.5132 10.787 10.6281 10.4943 10.8957C9.22371 12.0611 6.1335 12.0906 6.1335 12.0906H0.705322C0.705322 12.0906 2.10614 10.3045 5.88836 7.06442C9.61734 3.87055 11.9343 6.97617 11.9987 7.06442C11.9987 7.06442 14.3283 3.82572 18.1105 7.06442C21.8927 10.3045 23.2936 12.0906 23.2936 12.0906Z" fill="#F14F4A"/>
<path d="M23.2945 12.0923C23.2945 12.0923 20.351 18.6041 13.3486 18.3958L11.9969 18.1841L10.6522 18.3958C3.64628 18.6041 0.706299 12.0923 0.706299 12.0923H6.75218C6.75218 12.0923 10.1051 12.2758 12.0004 13.8888C13.8957 12.2758 17.2451 12.0923 17.2451 12.0923H23.2945Z" fill="#E23737"/>
</svg>
