<svg width="24" height="24" viewBox="0 0 24 24" fill="none" xmlns="http://www.w3.org/2000/svg">
<path d="M14.3343 3.11325C13.8723 3.31815 13.5709 3.78019 13.5709 4.28642V6.85774H9.07113C5.16594 6.85774 2 10.0237 2 13.9289C2 18.4809 5.27442 20.5139 6.02572 20.9237C6.12617 20.9799 6.23866 21 6.35116 21C6.78908 21 7.14264 20.6424 7.14264 20.2085C7.14264 19.9072 6.96988 19.63 6.74891 19.4251C6.37124 19.0675 5.85698 18.3644 5.85698 17.143C5.85698 15.0136 7.58459 13.286 9.71396 13.286H13.5709V15.8574C13.5709 16.3636 13.8682 16.8256 14.3343 17.0305C14.8004 17.2354 15.3387 17.1511 15.7164 16.8136L22.1447 11.0281C22.4139 10.783 22.5706 10.4375 22.5706 10.0719C22.5706 9.70628 22.4179 9.36076 22.1447 9.11568L15.7164 3.33021C15.5322 3.16338 15.3032 3.05398 15.0577 3.01544C14.8122 2.9769 14.5608 3.01089 14.3343 3.11325Z" fill="#FAFAFB"/>
</svg>
