<svg width="20" height="20" viewBox="0 0 20 20" fill="none" xmlns="http://www.w3.org/2000/svg">
<path d="M16.07 8.2H15V5.5C15 5.5 15 1 10 1C5 1 5 5.5 5 5.5V8.2H3.93C3.41813 8.2 2.92723 8.383 2.56528 8.70876C2.20334 9.03451 2 9.47632 2 9.937V17.272C2.00264 17.7311 2.20715 18.1706 2.56881 18.4944C2.93047 18.8182 3.41986 19 3.93 19H16.07C16.5819 19 17.0728 18.817 17.4347 18.4912C17.7967 18.1655 18 17.7237 18 17.263V9.937C18 9.47632 17.7967 9.03451 17.4347 8.70876C17.0728 8.383 16.5819 8.2 16.07 8.2ZM10 15.4C9.60444 15.4 9.21776 15.2944 8.88886 15.0966C8.55996 14.8989 8.30362 14.6177 8.15224 14.2888C8.00087 13.9599 7.96126 13.598 8.03843 13.2488C8.1156 12.8997 8.30608 12.5789 8.58579 12.3272C8.86549 12.0755 9.22186 11.904 9.60982 11.8346C9.99778 11.7651 10.3999 11.8008 10.7654 11.937C11.1308 12.0733 11.4432 12.304 11.6629 12.6C11.8827 12.896 12 13.244 12 13.6C12 14.0774 11.7893 14.5352 11.4142 14.8728C11.0391 15.2104 10.5304 15.4 10 15.4ZM13 8.2H7V5.95C7 4.6 7 2.8 10 2.8C13 2.8 13 4.6 13 5.95V8.2Z" fill="#FF9DB1"/>
</svg>
