<svg width="18" height="19" viewBox="0 0 18 19" fill="none" xmlns="http://www.w3.org/2000/svg">
<path d="M17.8281 2.46407C17.8281 2.46407 17.8281 2.47189 17.8281 2.47579L13.2812 17.4711C13.2124 17.7147 13.0707 17.9313 12.8752 18.0921C12.6797 18.2528 12.4397 18.3499 12.1874 18.3703C12.1515 18.3734 12.1156 18.375 12.0796 18.375C11.8432 18.3757 11.6115 18.3088 11.4119 18.1822C11.2123 18.0555 11.0531 17.8744 10.9531 17.6602L8.16322 11.7703C8.13567 11.7121 8.12682 11.6467 8.13787 11.5832C8.14892 11.5197 8.17933 11.4612 8.22493 11.4156L12.6984 6.94142C12.8106 6.82325 12.8723 6.66591 12.8702 6.50293C12.8681 6.33996 12.8025 6.18424 12.6872 6.06899C12.572 5.95374 12.4162 5.88807 12.2533 5.88599C12.0903 5.8839 11.9329 5.94556 11.8148 6.05782L7.33431 10.5313C7.28877 10.5769 7.23024 10.6073 7.16675 10.6183C7.10325 10.6294 7.03789 10.6205 6.97962 10.593L1.12025 7.8172C0.890125 7.71177 0.696464 7.54042 0.563787 7.32486C0.43111 7.10929 0.365385 6.8592 0.374934 6.60626C0.387659 6.34629 0.481777 6.09689 0.643982 5.89333C0.806187 5.68977 1.02827 5.54234 1.27884 5.47188L16.2742 0.92501H16.2859C16.4994 0.865027 16.725 0.862924 16.9396 0.918917C17.1542 0.97491 17.35 1.08698 17.507 1.24364C17.6639 1.40029 17.7764 1.59589 17.8328 1.81036C17.8893 2.02483 17.8876 2.25045 17.8281 2.46407Z" fill="white"/>
</svg>
