<svg width="25" height="24" viewBox="0 0 25 24" fill="none" xmlns="http://www.w3.org/2000/svg">
<path d="M22.1484 19.8751C20.7206 17.4067 18.5203 15.6367 15.9525 14.7976C17.2226 14.0415 18.2094 12.8893 18.7614 11.518C19.3134 10.1468 19.3999 8.63224 19.0078 7.20701C18.6157 5.78178 17.7666 4.52467 16.5909 3.62873C15.4151 2.73279 13.9778 2.24756 12.4996 2.24756C11.0215 2.24756 9.58414 2.73279 8.40842 3.62873C7.23269 4.52467 6.38358 5.78178 5.99146 7.20701C5.59935 8.63224 5.68592 10.1468 6.23788 11.518C6.78984 12.8893 7.77668 14.0415 9.04683 14.7976C6.47902 15.6357 4.27871 17.4057 2.85089 19.8751C2.79853 19.9605 2.7638 20.0555 2.74875 20.1545C2.7337 20.2535 2.73863 20.3545 2.76326 20.4516C2.78789 20.5487 2.83171 20.6399 2.89214 20.7197C2.95257 20.7996 3.02838 20.8666 3.1151 20.9167C3.20183 20.9667 3.29771 20.999 3.39709 21.0114C3.49647 21.0238 3.59733 21.0163 3.69373 20.9891C3.79012 20.9619 3.8801 20.9157 3.95835 20.8532C4.0366 20.7907 4.10154 20.7131 4.14933 20.6251C5.91558 17.5726 9.03746 15.7501 12.4996 15.7501C15.9618 15.7501 19.0837 17.5726 20.85 20.6251C20.8977 20.7131 20.9627 20.7907 21.0409 20.8532C21.1192 20.9157 21.2092 20.9619 21.3056 20.9891C21.402 21.0163 21.5028 21.0238 21.6022 21.0114C21.7016 20.999 21.7975 20.9667 21.8842 20.9167C21.9709 20.8666 22.0467 20.7996 22.1072 20.7197C22.1676 20.6399 22.2114 20.5487 22.236 20.4516C22.2607 20.3545 22.2656 20.2535 22.2505 20.1545C22.2355 20.0555 22.2008 19.9605 22.1484 19.8751ZM7.24964 9.00011C7.24964 7.96176 7.55755 6.94672 8.13443 6.08337C8.71131 5.22001 9.53124 4.5471 10.4906 4.14974C11.4499 3.75238 12.5055 3.64841 13.5239 3.85099C14.5423 4.05356 15.4777 4.55357 16.212 5.2878C16.9462 6.02202 17.4462 6.95748 17.6488 7.97589C17.8513 8.99429 17.7474 10.0499 17.35 11.0092C16.9527 11.9685 16.2797 12.7884 15.4164 13.3653C14.553 13.9422 13.538 14.2501 12.4996 14.2501C11.1077 14.2486 9.77322 13.695 8.78898 12.7108C7.80473 11.7265 7.25113 10.392 7.24964 9.00011Z" fill="#86929B"/>
</svg>
