<svg width="24" height="24" viewBox="0 0 24 24" fill="none" xmlns="http://www.w3.org/2000/svg">
<path fill-rule="evenodd" clip-rule="evenodd" d="M9.34778 15.1079C9.70103 15.4858 10.0261 15.9697 10.1255 16.1483L10.0436 16.1939C9.94764 16.0216 9.62702 15.5439 9.2793 15.1719L9.34778 15.1079Z" fill="#206930"/>
<path d="M9.08378 16.6042C10.8653 14.7865 11.7041 12.4988 12.1402 11.0558C12.2074 10.8337 12.4532 10.7193 12.6643 10.8145C12.8369 10.8923 12.9265 11.0852 12.8725 11.2669C12.4405 12.7182 11.6097 15.0581 9.78451 16.9203C8.64812 18.0797 7.20882 20.2685 6.57967 21.7375C6.49201 21.9423 6.25454 22.0416 6.05181 21.9501C5.86834 21.8674 5.77928 21.6574 5.85761 21.4717C6.47392 20.0104 7.93431 17.7769 9.08378 16.6042Z" fill="#358246"/>
<path d="M9.08378 16.6042C10.8653 14.7865 11.7041 12.4988 12.1402 11.0558C12.2074 10.8337 12.4532 10.7193 12.6643 10.8145C12.8369 10.8923 12.9265 11.0852 12.8725 11.2669C12.4405 12.7182 11.6097 15.0581 9.78451 16.9203C8.64812 18.0797 7.20882 20.2685 6.57967 21.7375C6.49201 21.9423 6.25454 22.0416 6.05181 21.9501C5.86834 21.8674 5.77928 21.6574 5.85761 21.4717C6.47392 20.0104 7.93431 17.7769 9.08378 16.6042Z" fill="url(#paint0_linear_193_23896)"/>
<path d="M7.83553 5.33062C7.1639 4.19883 7.62061 3.65989 7.99673 4.03714C8.07572 4.11641 8.23659 4.26703 8.45259 4.46379C8.25309 3.74817 8.24344 2.65091 9.44742 2.55506C10.9082 2.43877 11.3883 2.86447 12.546 2.68868C12.4462 2.40719 12.4812 2.03389 13.1547 2.01611C14.1756 1.98917 14.8389 3.08196 16.2173 3.30957C18.1122 3.62246 17.8427 5.27147 16.9747 6.11634C17.055 6.14709 17.1175 6.18989 17.1576 6.24679C17.2457 6.37209 17.2133 6.49331 17.0951 6.60722C17.3262 6.81323 17.267 6.54914 17.7222 6.60365C19.5221 6.81923 19.549 8.43609 16.8088 10.8074C15.5911 11.8612 14.7687 14.2442 13.2678 13.3104C13.0305 13.4631 12.7335 13.5495 12.3757 13.5495C11.7935 13.5495 11.0749 13.3333 10.3808 12.8416C8.77317 13.6147 8.40192 11.3361 7.19123 10.2884C4.45102 7.91704 4.47789 6.30023 6.27783 6.08465C7.24964 5.96822 6.70279 5.6017 7.81978 5.56219C7.82442 5.48564 7.82967 5.40844 7.83553 5.33062Z" fill="url(#paint1_linear_193_23896)"/>
<path d="M11.6504 4.31893C11.4831 4.19806 11.3291 4.09552 11.1873 4.00894C11.17 3.68384 11.4387 3.39297 12.2141 3.30973C12.2548 3.30537 12.2961 3.30214 12.3379 3.30001C13.5927 3.23617 15.2997 4.16052 14.5552 4.81829C14.4075 4.94884 14.1632 5.06884 13.7996 5.16859C13.2889 4.67464 12.8277 4.71025 12.3489 4.61397C12.1224 4.56844 11.8919 4.49343 11.6504 4.31893Z" fill="url(#paint2_linear_193_23896)"/>
<path d="M11.1874 4.00882C10.1459 3.37252 9.76866 3.598 9.66202 3.74059C9.41813 4.06682 9.75352 5.09501 10.098 5.91172C9.47217 5.37795 8.86266 4.83767 8.45227 4.46383C8.25277 3.74822 8.24316 2.65095 9.44714 2.55511C10.9079 2.43882 11.388 2.86451 12.5458 2.68873C12.567 2.74857 12.5943 2.80427 12.6229 2.85152L12.8646 3.28398C12.6588 3.28168 12.4417 3.28977 12.2142 3.30962C11.4387 3.39286 11.17 3.68373 11.1874 4.00882Z" fill="url(#paint3_linear_193_23896)"/>
<path d="M13.8 5.16832C14.1636 5.06857 14.4079 4.94857 14.5557 4.81803C15.3002 4.16025 13.5931 3.2359 12.3384 3.29974C12.2975 3.30259 12.2562 3.30583 12.2146 3.30947C12.2553 3.3051 12.2966 3.30187 12.3384 3.29974C12.5212 3.287 12.6968 3.28195 12.865 3.28383C15.5028 3.31323 16.3008 5.0471 13.8 5.56156C12.8402 5.75899 11.8897 6.60049 11.4481 7.02143C11.33 6.92937 11.2064 6.83103 11.0791 6.72814C11.5631 6.27738 12.7516 5.4559 13.8 5.16832Z" fill="url(#paint4_linear_193_23896)"/>
<path d="M11.1876 4.0087C10.1461 3.3724 9.76888 3.59788 9.66224 3.74046C9.41835 4.06669 9.75374 5.09489 10.0982 5.9116C10.4296 6.1942 10.7655 6.47494 11.0789 6.72816C11.563 6.27745 12.7514 5.45597 13.7999 5.16835C13.2892 4.6744 12.828 4.71 12.3492 4.61373C12.1227 4.56821 11.8922 4.49319 11.6507 4.3187C11.4834 4.19782 11.3294 4.09528 11.1876 4.0087Z" fill="url(#paint5_linear_193_23896)"/>
<path d="M16.2176 3.30957C14.8392 3.08196 14.1759 1.98917 13.155 2.01611C12.4815 2.03389 12.4464 2.40719 12.5463 2.68868C12.5676 2.74853 12.5949 2.80422 12.6235 2.85147L12.8652 3.28393C15.503 3.31334 16.301 5.04722 13.8002 5.56167C12.8404 5.75911 11.8899 6.60061 11.4482 7.02154C11.5768 7.12181 11.6987 7.21458 11.8118 7.29773C12.1175 7.52259 12.3901 7.82339 12.6262 8.15006C12.9258 7.60008 13.5385 6.71001 14.1759 6.51628C14.9522 6.28031 16.4085 5.89964 16.9749 6.11634C17.843 5.27147 18.1124 3.62246 16.2176 3.30957Z" fill="url(#paint6_linear_193_23896)"/>
<path d="M16.9747 6.11633C17.8427 5.27145 18.1122 3.62247 16.2173 3.30957C15.9098 4.24516 15.2901 6.13803 15.2715 6.22475C15.9319 6.07705 16.6239 5.98217 16.9747 6.11633Z" fill="url(#paint7_linear_193_23896)"/>
<path d="M16.8088 10.8075C19.549 8.43617 19.5222 6.81936 17.7222 6.60378C17.2671 6.54927 17.3262 6.81336 17.0951 6.6073C16.9734 6.72448 16.7608 6.83394 16.4948 6.93195C16.4457 7.44711 16.4121 8.18249 16.3785 9.23806C16.3174 11.1602 14.5434 12.5554 13.5279 13.0925C13.4511 13.1753 13.3644 13.2484 13.2678 13.3106C14.7687 14.2443 15.5912 11.8612 16.8088 10.8075Z" fill="url(#paint8_linear_193_23896)"/>
<path d="M16.3785 9.23806C16.3174 11.1602 14.5434 12.5554 13.5279 13.0925C13.4511 13.1753 13.3644 13.2484 13.2678 13.3106C14.7687 14.2443 15.5912 11.8612 16.8088 10.8075L17.7222 6.60378C17.2671 6.54927 17.3262 6.81336 17.0951 6.6073C16.9734 6.72448 16.7608 6.83394 16.4948 6.93195C16.4457 7.44711 16.4121 8.18249 16.3785 9.23806Z" fill="url(#paint9_linear_193_23896)"/>
<path d="M14.9816 7.29776C14.0907 7.43675 13.2377 8.08958 12.8429 8.47245C12.7744 8.36342 12.7021 8.25537 12.626 8.15005C12.9256 7.60006 13.5384 6.71 14.1757 6.51626C14.9521 6.2803 16.4083 5.89967 16.9748 6.11637C17.0551 6.14712 17.1176 6.18987 17.1577 6.24683C17.2458 6.37208 17.2134 6.4933 17.0952 6.6072C16.9734 6.72439 16.7608 6.8338 16.4949 6.93186C16.0741 7.08706 15.5199 7.21376 14.9816 7.29776Z" fill="url(#paint10_linear_193_23896)"/>
<path d="M16.3785 9.23795C16.3173 11.1601 14.5434 12.5552 13.5279 13.0924C14.1124 12.4629 14.1286 11.2759 13.6114 10.1272C13.4968 9.75081 13.2335 9.09512 12.8428 8.47243C13.2376 8.08956 14.0906 7.43678 14.9815 7.29774C15.5198 7.21379 16.074 7.08704 16.4948 6.93188C16.4457 7.44704 16.4121 8.18242 16.3785 9.23795Z" fill="url(#paint11_linear_193_23896)"/>
<path d="M7.83553 5.33067C8.64145 7.00139 12.2644 7.1354 13.6114 10.1272C13.4968 9.75089 13.2335 9.09515 12.8428 8.47251C12.7743 8.36348 12.702 8.25548 12.6259 8.15015C12.3898 7.82348 12.1172 7.52268 11.8115 7.29783C11.6984 7.21467 11.5765 7.12186 11.4479 7.02164C11.3299 6.92953 11.2063 6.83123 11.0789 6.72834C10.7656 6.47512 10.4296 6.19434 10.0983 5.91173C9.47245 5.37801 8.86293 4.83768 8.45254 4.46386C8.23654 4.2671 8.07571 4.11648 7.99673 4.03722C7.6206 3.65996 7.1639 4.19891 7.83553 5.33067Z" fill="url(#paint12_linear_193_23896)"/>
<path d="M7.91129 4.26562C8.89262 5.07811 10.8552 6.73584 10.8552 6.86705C10.8552 7.03111 7.81782 5.64839 7.91129 4.26562Z" fill="url(#paint13_linear_193_23896)"/>
<path d="M7.83553 5.33057C8.64145 7.00129 12.2644 7.13525 13.6114 10.1271C14.1286 11.2759 14.1124 12.4628 13.5279 13.0924C13.451 13.1751 13.3643 13.2483 13.2678 13.3104C13.0305 13.4631 12.7335 13.5494 12.3757 13.5494C11.7935 13.5494 11.0749 13.3333 10.3808 12.8416C8.77317 13.6146 8.40192 11.3361 7.19123 10.2883C4.45102 7.91699 4.47789 6.30018 6.27783 6.0846C7.24964 5.96821 6.7028 5.60164 7.81978 5.56213C7.82442 5.48558 7.82967 5.40838 7.83553 5.33057Z" fill="url(#paint14_linear_193_23896)"/>
<path d="M7.83549 5.33057C8.64142 7.00129 12.2644 7.13525 13.6114 10.1271L7.79312 6.72627C7.78665 6.35596 7.79499 5.96811 7.81974 5.56213C7.82438 5.48558 7.82963 5.40838 7.83549 5.33057Z" fill="url(#paint15_linear_193_23896)"/>
<path d="M10.3811 12.8416C11.0751 13.3333 11.7937 13.5495 12.3759 13.5495C12.7338 13.5495 13.0308 13.4631 13.268 13.3104C13.3646 13.2483 13.4513 13.1752 13.5281 13.0924C14.1127 12.4628 14.1289 11.2759 13.6117 10.1272L10.0518 12.5854C10.1605 12.678 10.2704 12.7633 10.3811 12.8416Z" fill="url(#paint16_linear_193_23896)"/>
<path d="M7.19123 10.2884C4.45102 7.91711 4.47789 6.30026 6.27783 6.08472C7.24964 5.96829 6.7028 5.60177 7.81978 5.56226C7.57589 9.56627 8.92453 11.8103 10.3808 12.8417C8.77317 13.6148 8.40192 11.3362 7.19123 10.2884Z" fill="url(#paint17_linear_193_23896)"/>
<path d="M7.81944 5.56201C7.57554 9.56603 8.92419 11.81 10.3805 12.8415C8.77283 13.6145 8.40158 11.3359 7.19089 10.2882C7.00264 8.86632 6.64015 6.01646 6.69626 5.99214C7.09934 5.83759 6.92019 5.59379 7.81944 5.56201Z" fill="url(#paint18_linear_193_23896)"/>
<path d="M5.22461 12.2387C6.02434 11.96 7.73453 12.0282 8.42355 12.92C9.25548 13.9967 9.27648 14.9002 9.64089 15.4628C9.65448 15.4824 9.66775 15.5018 9.68073 15.521C7.06928 15.2237 5.62188 13.2089 5.22461 12.2387Z" fill="#358246"/>
<path d="M14.2359 17.7963C13.7747 17.0814 12.3811 16.0757 11.2895 16.3513C9.97135 16.684 9.40051 17.3826 8.76732 17.5999C8.74454 17.607 8.72213 17.614 8.7002 17.6211C10.9467 19.0046 13.3267 18.3144 14.2359 17.7963Z" fill="#358246"/>
<path d="M8.7002 17.6212C10.9467 19.0047 13.3267 18.3145 14.2359 17.7964C14.1992 17.7396 14.1566 17.6809 14.1088 17.6212C13.0288 18.0873 10.3688 17.6695 9.17373 17.4023C9.01313 17.4983 8.85948 17.5756 8.7002 17.6212Z" fill="url(#paint19_linear_193_23896)"/>
<path d="M8.82248 4.2654C8.79135 3.85136 8.86457 3.00453 9.40659 2.92953C10.0842 2.83578 8.79913 3.18733 8.82248 4.2654Z" fill="url(#paint20_linear_193_23896)"/>
<defs>
<linearGradient id="paint0_linear_193_23896" x1="3.93948" y1="21.9834" x2="10.0322" y2="16.1429" gradientUnits="userSpaceOnUse">
<stop stop-color="#358246"/>
<stop offset="1" stop-color="#014610" stop-opacity="0"/>
</linearGradient>
<linearGradient id="paint1_linear_193_23896" x1="7.21617" y1="0.849279" x2="22.4573" y2="20.355" gradientUnits="userSpaceOnUse">
<stop stop-color="#FF2C42"/>
<stop offset="0.0001" stop-color="#FF5668"/>
<stop offset="1" stop-color="#E50029"/>
</linearGradient>
<linearGradient id="paint2_linear_193_23896" x1="11.0888" y1="2.92979" x2="14.0443" y2="6.56514" gradientUnits="userSpaceOnUse">
<stop stop-color="#FA465C"/>
<stop offset="0.0001" stop-color="#FF5668"/>
<stop offset="1" stop-color="#B20215"/>
</linearGradient>
<linearGradient id="paint3_linear_193_23896" x1="11.0422" y1="4.38275" x2="10.3073" y2="2.01256" gradientUnits="userSpaceOnUse">
<stop stop-color="#B20215"/>
<stop offset="1" stop-color="#B20215" stop-opacity="0"/>
</linearGradient>
<linearGradient id="paint4_linear_193_23896" x1="10.879" y1="5.78876" x2="14.1383" y2="8.14198" gradientUnits="userSpaceOnUse">
<stop stop-color="#FF7C84"/>
<stop offset="1" stop-color="#E50029"/>
</linearGradient>
<linearGradient id="paint5_linear_193_23896" x1="12.2106" y1="6.86686" x2="10.007" y2="3.41072" gradientUnits="userSpaceOnUse">
<stop stop-color="#B20215"/>
<stop offset="0.301374" stop-color="#B20215" stop-opacity="0.352"/>
<stop offset="1" stop-color="#B20215" stop-opacity="0"/>
</linearGradient>
<linearGradient id="paint6_linear_193_23896" x1="14.0334" y1="8.50748" x2="13.3754" y2="6.3022" gradientUnits="userSpaceOnUse">
<stop stop-color="#B20215"/>
<stop offset="1" stop-color="#B20215" stop-opacity="0"/>
</linearGradient>
<linearGradient id="paint7_linear_193_23896" x1="17.6547" y1="7.031" x2="15.7567" y2="5.78356" gradientUnits="userSpaceOnUse">
<stop stop-color="#B20215"/>
<stop offset="1" stop-color="#B20215" stop-opacity="0"/>
</linearGradient>
<linearGradient id="paint8_linear_193_23896" x1="14.2902" y1="13.3589" x2="15.1952" y2="11.4325" gradientUnits="userSpaceOnUse">
<stop stop-color="#B20215"/>
<stop offset="1" stop-color="#B20215" stop-opacity="0"/>
</linearGradient>
<linearGradient id="paint9_linear_193_23896" x1="15.8789" y1="9.16381" x2="17.2851" y2="9.29792" gradientUnits="userSpaceOnUse">
<stop stop-color="#B20215"/>
<stop offset="1" stop-color="#F22C49" stop-opacity="0"/>
</linearGradient>
<linearGradient id="paint10_linear_193_23896" x1="14.1781" y1="8.31008" x2="13.8024" y2="7.23106" gradientUnits="userSpaceOnUse">
<stop stop-color="#B20215"/>
<stop offset="1" stop-color="#B20215" stop-opacity="0"/>
</linearGradient>
<linearGradient id="paint11_linear_193_23896" x1="14.0799" y1="12.6792" x2="12.9513" y2="8.23553" gradientUnits="userSpaceOnUse">
<stop stop-color="#B20215"/>
<stop offset="1" stop-color="#B20215" stop-opacity="0"/>
</linearGradient>
<linearGradient id="paint12_linear_193_23896" x1="13.2153" y1="11.1793" x2="14.6496" y2="8.57001" gradientUnits="userSpaceOnUse">
<stop stop-color="#B20215"/>
<stop offset="1" stop-color="#B20215" stop-opacity="0"/>
</linearGradient>
<linearGradient id="paint13_linear_193_23896" x1="9.89729" y1="2.71884" x2="8.65258" y2="5.57527" gradientUnits="userSpaceOnUse">
<stop stop-color="white"/>
<stop offset="1" stop-color="white" stop-opacity="0"/>
</linearGradient>
<linearGradient id="paint14_linear_193_23896" x1="10.949" y1="12.8432" x2="12.1597" y2="11.4255" gradientUnits="userSpaceOnUse">
<stop stop-color="#B20215"/>
<stop offset="1" stop-color="#F53650" stop-opacity="0"/>
</linearGradient>
<linearGradient id="paint15_linear_193_23896" x1="12.1639" y1="7.57002" x2="11.366" y2="8.88397" gradientUnits="userSpaceOnUse">
<stop stop-color="#B20215"/>
<stop offset="1" stop-color="#F53650" stop-opacity="0"/>
</linearGradient>
<linearGradient id="paint16_linear_193_23896" x1="13.3324" y1="13.2885" x2="12.2806" y2="11.7826" gradientUnits="userSpaceOnUse">
<stop stop-color="#B20215"/>
<stop offset="1" stop-color="#B20215" stop-opacity="0"/>
</linearGradient>
<linearGradient id="paint17_linear_193_23896" x1="7.11717" y1="11.109" x2="7.91512" y2="9.79872" gradientUnits="userSpaceOnUse">
<stop stop-color="#C60115"/>
<stop offset="1" stop-color="#FC5264"/>
</linearGradient>
<linearGradient id="paint18_linear_193_23896" x1="8.86915" y1="9.04637" x2="7.16347" y2="8.90659" gradientUnits="userSpaceOnUse">
<stop stop-color="#C60115"/>
<stop offset="1" stop-color="#FC5264" stop-opacity="0"/>
</linearGradient>
<linearGradient id="paint19_linear_193_23896" x1="10.6457" y1="17.7416" x2="10.5752" y2="18.7727" gradientUnits="userSpaceOnUse">
<stop stop-color="#358246"/>
<stop offset="1" stop-color="#0E531D"/>
</linearGradient>
<linearGradient id="paint20_linear_193_23896" x1="9.19631" y1="1.05462" x2="9.21037" y2="4.26542" gradientUnits="userSpaceOnUse">
<stop stop-color="#F8C6CC"/>
<stop offset="0.86831" stop-color="#F8C6CC" stop-opacity="0"/>
</linearGradient>
</defs>
</svg>
