<svg width="18" height="18" viewBox="0 0 18 18" fill="none" xmlns="http://www.w3.org/2000/svg">
<path d="M8.99942 5.25015C8.25774 5.25015 7.53271 5.47008 6.91603 5.88214C6.29934 6.29419 5.8187 6.87986 5.53487 7.56509C5.25104 8.25031 5.17678 9.00431 5.32147 9.73174C5.46617 10.4592 5.82332 11.1274 6.34777 11.6518C6.87221 12.1762 7.5404 12.5334 8.26783 12.6781C8.99526 12.8228 9.74926 12.7485 10.4345 12.4647C11.1197 12.1809 11.7054 11.7002 12.1174 11.0835C12.5295 10.4669 12.7494 9.74183 12.7494 9.00015C12.7484 8.0059 12.353 7.05268 11.6499 6.34964C10.9469 5.6466 9.99366 5.25118 8.99942 5.25015ZM8.99942 11.5001C8.50496 11.5001 8.02161 11.3535 7.61049 11.0788C7.19937 10.8041 6.87894 10.4137 6.68972 9.95686C6.5005 9.50004 6.45099 8.99737 6.54745 8.51242C6.64392 8.02747 6.88202 7.58201 7.23165 7.23238C7.58128 6.88275 8.02674 6.64465 8.51169 6.54818C8.99664 6.45172 9.49931 6.50123 9.95612 6.69045C10.4129 6.87967 10.8034 7.2001 11.0781 7.61122C11.3528 8.02235 11.4994 8.50569 11.4994 9.00015C11.4994 9.66319 11.236 10.2991 10.7672 10.7679C10.2983 11.2368 9.66246 11.5001 8.99942 11.5001ZM17.5885 7.37593C17.5711 7.28792 17.5349 7.20469 17.4825 7.13189C17.43 7.05909 17.3625 6.99844 17.2846 6.95405L14.9541 5.62593L14.9447 2.99937C14.9444 2.90891 14.9245 2.81959 14.8864 2.73758C14.8482 2.65557 14.7927 2.58282 14.7236 2.52437C13.8783 1.80929 12.9048 1.26129 11.8549 0.909523C11.7722 0.881538 11.6846 0.871182 11.5977 0.879121C11.5107 0.88706 11.4264 0.913118 11.3502 0.955617L8.99942 2.26968L6.64629 0.953273C6.57 0.910535 6.4856 0.88428 6.39853 0.876205C6.31146 0.868131 6.22367 0.878417 6.14082 0.906398C5.09172 1.26074 4.11933 1.81082 3.2752 2.52749C3.20627 2.58586 3.15081 2.65848 3.11264 2.74035C3.07447 2.82222 3.0545 2.91138 3.0541 3.00171L3.04239 5.63062L0.711916 6.95874C0.633949 7.00313 0.566451 7.06378 0.514011 7.13658C0.461571 7.20937 0.425419 7.2926 0.40801 7.38062C0.194726 8.4524 0.194726 9.55571 0.40801 10.6275C0.425419 10.7155 0.461571 10.7987 0.514011 10.8715C0.566451 10.9443 0.633949 11.005 0.711916 11.0494L3.04239 12.3775L3.05176 15.0041C3.05204 15.0945 3.07196 15.1838 3.11013 15.2658C3.1483 15.3479 3.20382 15.4206 3.27285 15.4791C4.11822 16.1941 5.09173 16.7421 6.1416 17.0939C6.22428 17.1219 6.3119 17.1322 6.39883 17.1243C6.48575 17.1164 6.57005 17.0903 6.64629 17.0478L8.99942 15.7306L11.3525 17.047C11.4457 17.0989 11.5506 17.1258 11.6572 17.1251C11.7255 17.1251 11.7933 17.114 11.858 17.0923C12.907 16.7385 13.8794 16.1889 14.7236 15.4728C14.7926 15.4144 14.848 15.3418 14.8862 15.2599C14.9244 15.1781 14.9443 15.0889 14.9447 14.9986L14.9564 12.3697L17.2869 11.0416C17.3649 10.9972 17.4324 10.9365 17.4848 10.8637C17.5373 10.7909 17.5734 10.7077 17.5908 10.6197C17.8029 9.54875 17.8021 8.44655 17.5885 7.37593ZM16.4166 10.1033L14.1846 11.3728C14.0868 11.4284 14.0058 11.5094 13.9502 11.6072C13.9049 11.6853 13.8572 11.7681 13.8088 11.8462C13.7468 11.9448 13.7138 12.0587 13.7135 12.1751L13.7018 14.6947C13.1018 15.1658 12.4334 15.5426 11.7197 15.8119L9.46817 14.5572C9.37469 14.5055 9.26952 14.4786 9.1627 14.4791H9.14785C9.05332 14.4791 8.95801 14.4791 8.86348 14.4791C8.75167 14.4763 8.64113 14.5032 8.54317 14.5572L6.29004 15.815C5.57481 15.5477 4.90459 15.1729 4.30254 14.7033L4.29395 12.1876C4.29356 12.071 4.26055 11.9568 4.19864 11.858C4.1502 11.7798 4.10254 11.7017 4.05801 11.6189C4.00279 11.5196 3.92183 11.437 3.82364 11.3798L1.58926 10.1072C1.47363 9.37578 1.47363 8.63076 1.58926 7.89937L3.81738 6.62749C3.91518 6.57188 3.99615 6.49091 4.05176 6.39312C4.09707 6.31499 4.14473 6.23218 4.19317 6.15405C4.25517 6.05553 4.2882 5.94155 4.28848 5.82515L4.3002 3.30562C4.90014 2.83448 5.56853 2.45774 6.28223 2.18843L8.53067 3.44312C8.62852 3.49736 8.73914 3.52434 8.85098 3.52124C8.94551 3.52124 9.04082 3.52124 9.13535 3.52124C9.24716 3.52404 9.3577 3.49707 9.45567 3.44312L11.7088 2.1853C12.424 2.45255 13.0942 2.82744 13.6963 3.29702L13.7049 5.81265C13.7053 5.92928 13.7383 6.04349 13.8002 6.14234C13.8486 6.22046 13.8963 6.29859 13.9408 6.3814C13.996 6.4807 14.077 6.56329 14.1752 6.62046L16.4096 7.89312C16.5267 8.62507 16.5281 9.3709 16.4135 10.1033H16.4166Z" fill="#424348"/>
</svg>
