<svg width="80" height="76" viewBox="0 0 80 76" fill="none" xmlns="http://www.w3.org/2000/svg">
<path d="M75.7461 44.6257L75.7228 44.6373C72.9806 46.7402 71.8188 50.3188 72.7948 53.6304L72.8064 53.6537C74.3633 58.9171 70.5059 64.2268 65.0216 64.3663H64.9984C61.5359 64.4593 58.4917 66.6668 57.3414 69.9318V69.9434C55.5055 75.1254 49.2547 77.1587 44.7348 74.033C41.9283 72.1166 38.2181 72.0166 35.2653 74.033H35.2537C30.7341 77.1469 24.483 75.1252 22.6588 69.9316C21.4981 66.6585 18.4584 64.459 15.0019 64.3662H14.9786C9.49453 64.2266 5.63688 58.917 7.19391 53.6535L7.20547 53.6302C8.18125 50.3187 7.01937 46.7401 4.2775 44.6371L4.25422 44.6255C-0.102969 41.2791 -0.102969 34.7262 4.25422 31.3799L4.2775 31.3684C7.01937 29.2654 8.18125 25.6866 7.19391 22.3752V22.352C5.62516 17.0887 9.49438 11.7787 14.9786 11.6393H15.0019C18.4527 11.5463 21.5084 9.33867 22.6588 6.07383V6.06226C24.4828 0.880231 30.7341 -1.15305 35.2537 1.97258H35.2653C38.1119 3.93617 41.8764 3.93617 44.7348 1.97258C49.3002 -1.18008 55.5163 0.911325 57.3414 6.06226V6.07383C58.4917 9.32711 61.5358 11.5465 64.9984 11.6393H65.0216C70.5058 11.7787 74.3633 17.0887 72.8064 22.352L72.7948 22.3752C71.8188 25.6866 72.9806 29.2654 75.7228 31.3684L75.7461 31.3799C80.1033 34.7262 80.1033 41.2793 75.7461 44.6257Z" fill="#FF6D8B"/>
<path d="M40.0007 59.6435C51.954 59.6435 61.644 49.9535 61.644 38.0002C61.644 26.047 51.954 16.3569 40.0007 16.3569C28.0474 16.3569 18.3574 26.047 18.3574 38.0002C18.3574 49.9535 28.0474 59.6435 40.0007 59.6435Z" fill="#8BD399"/>
<path opacity="0.1" d="M56.6186 24.1456C52.875 21.0659 48.0855 19.2148 42.8643 19.2148C30.9111 19.2148 21.2158 28.9102 21.2158 40.8633C21.2158 46.0845 23.0669 50.8741 26.1464 54.6177C21.39 50.65 18.3604 44.6817 18.3604 37.9995C18.3604 26.0463 28.0474 16.3594 40.0005 16.3594C46.6827 16.3594 52.651 19.3891 56.6186 24.1456Z" fill="black"/>
<path d="M34.8514 46.4728L30.0654 41.381C28.8119 40.0472 28.8766 37.9502 30.2099 36.6967C31.5432 35.4417 33.6411 35.5091 34.8935 36.8419L37.1782 39.2716L46.8896 28.1719C48.0933 26.7944 50.1871 26.6547 51.5657 27.8602C52.9432 29.0656 53.0822 31.1588 51.8774 32.5363L39.7594 46.3855C38.4685 47.8594 36.1902 47.898 34.8514 46.4728Z" fill="white"/>
</svg>
