<svg width="24" height="24" viewBox="0 0 24 24" fill="none" xmlns="http://www.w3.org/2000/svg">
<path d="M21 6H13.41L16.35 3.06001C16.5437 2.8663 16.5448 2.55259 16.3525 2.35752C16.1582 2.16048 15.8406 2.15935 15.645 2.35501L12 6L8.35473 2.35473C8.15882 2.15882 7.84118 2.15882 7.64527 2.35473C7.44915 2.55085 7.44939 2.86891 7.64581 3.06473L10.59 6H3C2.46957 6 1.96086 6.21071 1.58579 6.58579C1.21071 6.96086 1 7.46957 1 8V20C1 21.1 1.9 22 3 22H21C22.1 22 23 21.1 23 20V8C23 7.46957 22.7893 6.96086 22.4142 6.58579C22.0391 6.21071 21.5304 6 21 6ZM21 19C21 19.5523 20.5523 20 20 20H4C3.44772 20 3 19.5523 3 19V9C3 8.44771 3.44772 8 4 8H20C20.5523 8 21 8.44772 21 9V19ZM10.4961 10.8549C9.82948 10.474 9 10.9554 9 11.7232V16.2768C9 17.0446 9.82948 17.526 10.4961 17.1451L14.4806 14.8682C15.1524 14.4843 15.1524 13.5157 14.4806 13.1318L10.4961 10.8549Z" fill="white"/>
</svg>
