<svg width="20" height="20" viewBox="0 0 20 20" fill="none" xmlns="http://www.w3.org/2000/svg">
<path d="M5 6.66699H8.33333" stroke="#424348" stroke-width="1.2" stroke-linecap="round" stroke-linejoin="round"/>
<path d="M17.3608 7.5H15.1925C13.705 7.5 12.5 8.61917 12.5 10C12.5 11.3808 13.7058 12.5 15.1917 12.5H17.3608C17.4308 12.5 17.465 12.5 17.4942 12.4983C17.9442 12.4708 18.3025 12.1383 18.3317 11.7208C18.3333 11.6942 18.3333 11.6617 18.3333 11.5975V8.4025C18.3333 8.33833 18.3333 8.30583 18.3317 8.27917C18.3017 7.86167 17.9442 7.52917 17.4942 7.50167C17.4658 7.5 17.4308 7.5 17.3608 7.5Z" stroke="#424348" stroke-width="1.2"/>
<path d="M17.4712 7.50016C17.4062 5.94016 17.1978 4.9835 16.5237 4.31016C15.5478 3.3335 13.9762 3.3335 10.8337 3.3335H8.33366C5.19116 3.3335 3.61949 3.3335 2.64366 4.31016C1.66699 5.286 1.66699 6.85766 1.66699 10.0002C1.66699 13.1427 1.66699 14.7143 2.64366 15.6902C3.61949 16.6668 5.19116 16.6668 8.33366 16.6668H10.8337C13.9762 16.6668 15.5478 16.6668 16.5237 15.6902C17.1978 15.0168 17.407 14.0602 17.4712 12.5002" stroke="#424348" stroke-width="1.2"/>
<path d="M14.9932 10H15.0015" stroke="#424348" stroke-width="2" stroke-linecap="round" stroke-linejoin="round"/>
</svg>
