<svg width="15" height="15" viewBox="0 0 15 15" fill="none" xmlns="http://www.w3.org/2000/svg">
<path d="M7.2062 1.52893C3.94962 1.52893 1.2959 4.18265 1.2959 7.43923C1.2959 10.6958 3.94962 13.3495 7.2062 13.3495C10.4628 13.3495 13.1165 10.6958 13.1165 7.43923C13.1165 4.18265 10.4628 1.52893 7.2062 1.52893ZM6.76292 5.07511C6.76292 4.83279 6.96387 4.63184 7.2062 4.63184C7.44852 4.63184 7.64947 4.83279 7.64947 5.07511V8.03026C7.64947 8.27258 7.44852 8.47353 7.2062 8.47353C6.96387 8.47353 6.76292 8.27258 6.76292 8.03026V5.07511ZM7.74994 10.0279C7.72039 10.1048 7.67902 10.1639 7.62583 10.223C7.56672 10.2762 7.50171 10.3175 7.43079 10.3471C7.35986 10.3766 7.28303 10.3944 7.2062 10.3944C7.12936 10.3944 7.05253 10.3766 6.9816 10.3471C6.91068 10.3175 6.84567 10.2762 6.78656 10.223C6.73337 10.1639 6.692 10.1048 6.66245 10.0279C6.6329 9.95702 6.61517 9.88018 6.61517 9.80335C6.61517 9.72651 6.6329 9.64968 6.66245 9.57876C6.692 9.50783 6.73337 9.44282 6.78656 9.38372C6.84567 9.33052 6.91068 9.28915 6.9816 9.2596C7.12345 9.2005 7.28894 9.2005 7.43079 9.2596C7.50171 9.28915 7.56672 9.33052 7.62583 9.38372C7.67902 9.44282 7.72039 9.50783 7.74994 9.57876C7.77949 9.64968 7.79723 9.72651 7.79723 9.80335C7.79723 9.88018 7.77949 9.95702 7.74994 10.0279Z" fill="#CBD0DC"/>
</svg>
