<svg width="24" height="24" viewBox="0 0 24 24" fill="none" xmlns="http://www.w3.org/2000/svg">
<path d="M18.7949 17.8044C18.8599 17.8695 18.9115 17.9467 18.9467 18.0316C18.9819 18.1166 19 18.2077 19 18.2996C19 18.3916 18.9819 18.4827 18.9467 18.5677C18.9115 18.6526 18.8599 18.7298 18.7949 18.7949C18.7298 18.8599 18.6526 18.9115 18.5677 18.9467C18.4827 18.9819 18.3916 19 18.2996 19C18.2077 19 18.1166 18.9819 18.0316 18.9467C17.9467 18.9115 17.8695 18.8599 17.8044 18.7949L12 12.9896L6.19557 18.7949C6.06423 18.9262 5.88609 19 5.70035 19C5.51461 19 5.33647 18.9262 5.20513 18.7949C5.07379 18.6635 5 18.4854 5 18.2996C5 18.1139 5.07379 17.9358 5.20513 17.8044L11.0104 12L5.20513 6.19557C5.07379 6.06423 5 5.88609 5 5.70035C5 5.51461 5.07379 5.33647 5.20513 5.20513C5.33647 5.07379 5.51461 5 5.70035 5C5.88609 5 6.06423 5.07379 6.19557 5.20513L12 11.0104L17.8044 5.20513C17.9358 5.07379 18.1139 5 18.2996 5C18.4854 5 18.6635 5.07379 18.7949 5.20513C18.9262 5.33647 19 5.51461 19 5.70035C19 5.88609 18.9262 6.06423 18.7949 6.19557L12.9896 12L18.7949 17.8044Z" fill="white"/>
</svg>
